PathFileType  4	(X/Y/Z) /dataNAS/people/anoopai/OpenCap/opencap-core/Examples/Data/d712a0c6-d1a0-423f-8dc2-b78d41b5c55e/MarkerData/PreAugmentation
DataRate	CameraRate	NumFrames	NumMarkers	Units	OrigDataRate	OrigDataStartFrame	OrigNumFrames
60.0	60.0	11	20	m	60.0	1	874
Frame#	Time	Neck			RShoulder			RElbow			RWrist			LShoulder			LElbow			LWrist			midHip			RHip			RKnee			RAnkle			LHip			LKnee			LAnkle			LBigToe			LSmallToe			LHeel			RBigToe			RSmallToe			RHeel			
		X1	Y1	Z1	X2	Y2	Z2	X3	Y3	Z3	X4	Y4	Z4	X5	Y5	Z5	X6	Y6	Z6	X7	Y7	Z7	X8	Y8	Z8	X9	Y9	Z9	X10	Y10	Z10	X11	Y11	Z11	X12	Y12	Z12	X13	Y13	Z13	X14	Y14	Z14	X15	Y15	Z15	X16	Y16	Z16	X17	Y17	Z17	X18	Y18	Z18	X19	Y19	Z19	X20	Y20	Z20	

1	0.0000000	0.4295700	0.7768100	-0.1041000	0.4919500	0.7640300	-0.2545600	0.4527200	0.5233400	-0.3737800	0.3117300	0.7497000	-0.4038700	0.3835200	0.7917200	0.0517800	0.2763400	0.5620000	0.1624200	0.1468100	0.7866500	0.0322800	0.3320900	0.2424100	-0.1223100	0.3722700	0.2381800	-0.2261400	0.3117300	-0.1743200	-0.2797400	0.6887200	-0.2718300	-0.0872800	0.3055000	0.2502000	-0.0143000	0.2230100	-0.1592100	0.0026200	0.6090100	-0.2581100	0.0986400	0.6551600	-0.4479600	0.1628700	0.6545500	-0.4467600	0.1625500	0.6796800	-0.2425900	0.1018300	0.6895000	-0.4569600	-0.1293000	0.6901700	-0.4536000	-0.1286600	0.7328800	-0.2683000	-0.0469200
2	0.0166667	0.4296500	0.7768300	-0.1043100	0.4915700	0.7638300	-0.2547800	0.4520700	0.5232000	-0.3738400	0.3117400	0.7495800	-0.4038800	0.3840800	0.7918800	0.0515500	0.2766700	0.5619200	0.1621400	0.1476800	0.7873100	0.0320500	0.3326700	0.2423300	-0.1223000	0.3723900	0.2380600	-0.2262600	0.3114900	-0.1738500	-0.2797200	0.6877000	-0.2716500	-0.0875700	0.3064500	0.2504400	-0.0142300	0.2228800	-0.1589100	0.0025200	0.6089100	-0.2583900	0.0992000	0.6563300	-0.4479600	0.1630600	0.6557300	-0.4466800	0.1627200	0.6780200	-0.2431900	0.1021700	0.6937400	-0.4556800	-0.1295900	0.6942600	-0.4524600	-0.1289500	0.7323400	-0.2679500	-0.0469500
3	0.0333333	0.4296700	0.7768000	-0.1045200	0.4911800	0.7637400	-0.2550400	0.4515600	0.5231500	-0.3738400	0.3116900	0.7495800	-0.4039200	0.3845000	0.7920300	0.0513400	0.2767600	0.5618500	0.1618200	0.1483600	0.7877000	0.0318100	0.3332600	0.2421200	-0.1222800	0.3725800	0.2376300	-0.2262900	0.3114100	-0.1732900	-0.2796400	0.6866700	-0.2715200	-0.0879500	0.3074200	0.2504100	-0.0141600	0.2226000	-0.1585900	0.0023800	0.6090200	-0.2587600	0.0999100	0.6575100	-0.4479500	0.1632600	0.6569200	-0.4465900	0.1629100	0.6765000	-0.2436700	0.1024900	0.6975400	-0.4558300	-0.1297700	0.6978800	-0.4526700	-0.1291700	0.7317500	-0.2674800	-0.0470700
4	0.0500000	0.4295900	0.7766900	-0.1047300	0.4908400	0.7635900	-0.2553100	0.4512300	0.5231700	-0.3737600	0.3116000	0.7495300	-0.4039600	0.3846800	0.7919100	0.0511700	0.2765300	0.5617900	0.1614500	0.1487300	0.7882500	0.0314700	0.3338100	0.2418000	-0.1222400	0.3728900	0.2368300	-0.2262200	0.3116400	-0.1728300	-0.2794200	0.6857300	-0.2715400	-0.0884200	0.3082600	0.2502600	-0.0141100	0.2221400	-0.1582200	0.0022000	0.6092200	-0.2591400	0.1007100	0.6587300	-0.4481000	0.1634900	0.6581300	-0.4466500	0.1631100	0.6752600	-0.2442200	0.1028500	0.6996900	-0.4560600	-0.1304200	0.6998600	-0.4529100	-0.1298800	0.7312300	-0.2671500	-0.0472200
5	0.0666667	0.4293900	0.7765500	-0.1049500	0.4905900	0.7633000	-0.2555500	0.4510700	0.5232700	-0.3736100	0.3114900	0.7495300	-0.4040000	0.3845600	0.7917100	0.0509900	0.2760100	0.5617300	0.1610800	0.1487800	0.7892000	0.0310000	0.3344400	0.2409900	-0.1221200	0.3731700	0.2363200	-0.2261500	0.3121900	-0.1724400	-0.2790800	0.6849100	-0.2717400	-0.0889500	0.3090500	0.2494900	-0.0140400	0.2215400	-0.1578700	0.0020000	0.6096400	-0.2599800	0.1016700	0.6598200	-0.4482000	0.1636500	0.6592000	-0.4466700	0.1632700	0.6742500	-0.2449800	0.1032500	0.7005800	-0.4568600	-0.1312300	0.7006600	-0.4537900	-0.1307000	0.7306900	-0.2669200	-0.0474600
6	0.0833333	0.4291200	0.7763300	-0.1051700	0.4904100	0.7633400	-0.2558200	0.4510000	0.5234400	-0.3734200	0.3114200	0.7495200	-0.4040200	0.3842000	0.7914000	0.0508000	0.2753200	0.5616800	0.1607200	0.1487000	0.7888600	0.0307300	0.3350000	0.2401400	-0.1219600	0.3735800	0.2355000	-0.2259500	0.3128100	-0.1717500	-0.2787700	0.6841900	-0.2721200	-0.0895500	0.3097500	0.2482100	-0.0139800	0.2208900	-0.1575200	0.0018000	0.6096900	-0.2602700	0.1023800	0.6608600	-0.4484800	0.1638200	0.6602200	-0.4468800	0.1634300	0.6733500	-0.2459300	0.1036100	0.7011600	-0.4589100	-0.1316800	0.7011400	-0.4558200	-0.1312000	0.7301400	-0.2669400	-0.0477700
7	0.1000000	0.4288300	0.7761700	-0.1053800	0.4903600	0.7632600	-0.2560000	0.4509700	0.5235500	-0.3732200	0.3114200	0.7494100	-0.4040100	0.3836600	0.7913000	0.0505800	0.2746500	0.5617300	0.1603900	0.1483200	0.7896200	0.0302100	0.3354500	0.2393200	-0.1218000	0.3740700	0.2344700	-0.2256300	0.3137300	-0.1715600	-0.2783000	0.6834700	-0.2724800	-0.0901900	0.3099000	0.2477700	-0.0139900	0.2203200	-0.1571700	0.0016100	0.6096000	-0.2604700	0.1029400	0.6616100	-0.4486600	0.1639000	0.6609400	-0.4469900	0.1635000	0.6724100	-0.2468600	0.1038300	0.7011600	-0.4604400	-0.1322000	0.7010800	-0.4573500	-0.1317500	0.7295100	-0.2670900	-0.0481800
8	0.1166667	0.4285700	0.7760200	-0.1055600	0.4904200	0.7633000	-0.2561100	0.4508900	0.5236200	-0.3730700	0.3114600	0.7495900	-0.4040300	0.3831000	0.7910200	0.0503700	0.2742200	0.5618300	0.1601400	0.1478300	0.7897800	0.0297500	0.3357600	0.2386400	-0.1216500	0.3744600	0.2336900	-0.2253500	0.3144400	-0.1712400	-0.2779100	0.6828100	-0.2728500	-0.0908100	0.3099400	0.2471100	-0.0140000	0.2199000	-0.1568400	0.0014500	0.6097300	-0.2610500	0.1034600	0.6622300	-0.4491300	0.1640000	0.6615400	-0.4474100	0.1635900	0.6713500	-0.2473400	0.1037700	0.7014400	-0.4619500	-0.1324200	0.7013100	-0.4588400	-0.1319900	0.7288900	-0.2673400	-0.0486300
9	0.1333333	0.4283400	0.7759500	-0.1056900	0.4905600	0.7634800	-0.2561200	0.4507300	0.5235900	-0.3730000	0.3116000	0.7495700	-0.4040600	0.3825000	0.7908200	0.0501400	0.2741800	0.5620400	0.1599800	0.1471800	0.7901300	0.0292100	0.3358800	0.2381000	-0.1215300	0.3746400	0.2332000	-0.2251600	0.3148700	-0.1709800	-0.2775900	0.6821700	-0.2731100	-0.0913600	0.3099000	0.2464100	-0.0139800	0.2197100	-0.1565400	0.0013300	0.6099700	-0.2615300	0.1037800	0.6623200	-0.4493300	0.1639200	0.6616300	-0.4475700	0.1635100	0.6707300	-0.2480900	0.1036900	0.7016900	-0.4622700	-0.1326600	0.7015500	-0.4591700	-0.1322300	0.7283400	-0.2675600	-0.0490800
10	0.1500000	0.4281300	0.7759400	-0.1057700	0.4907800	0.7636100	-0.2560000	0.4504800	0.5234500	-0.3730200	0.3118100	0.7496200	-0.4041300	0.3818800	0.7905800	0.0499100	0.2745600	0.5623500	0.1599000	0.1464600	0.7901100	0.0287200	0.3357700	0.2379300	-0.1214800	0.3745600	0.2330000	-0.2250700	0.3149800	-0.1708500	-0.2773500	0.6815600	-0.2732300	-0.0918500	0.3096600	0.2463100	-0.0139900	0.2197200	-0.1562500	0.0012600	0.6104200	-0.2619400	0.1039500	0.6622200	-0.4497300	0.1638600	0.6615300	-0.4479300	0.1634500	0.6705200	-0.2487500	0.1035200	0.7026100	-0.4625100	-0.1325400	0.7024400	-0.4593600	-0.1321200	0.7279000	-0.2676400	-0.0495200
11	0.1666667	0.4279400	0.7760300	-0.1058300	0.4910600	0.7635800	-0.2557500	0.4501500	0.5232200	-0.3731100	0.3121200	0.7496700	-0.4042300	0.3812400	0.7905800	0.0496400	0.2752600	0.5627400	0.1598500	0.1457000	0.7904200	0.0281800	0.3355000	0.2380000	-0.1214900	0.3741500	0.2333500	-0.2251700	0.3147500	-0.1707300	-0.2771900	0.6809700	-0.2732500	-0.0922800	0.3094200	0.2464400	-0.0139800	0.2199200	-0.1560500	0.0012400	0.6111700	-0.2623700	0.1040400	0.6617800	-0.4499100	0.1637200	0.6610900	-0.4480800	0.1633000	0.6708000	-0.2494200	0.1033900	0.7036400	-0.4621100	-0.1324300	0.7034800	-0.4589400	-0.1319900	0.7275700	-0.2676000	-0.0499300
